<svg viewBox="0 0 24 24" xmlns="http://www.w3.org/2000/svg"><path d="M12 0a12 12 0 1 0 12 12A12 12 0 0 0 12 0Zm0 22a10 10 0 1 1 10-10 10 10 0 0 1-10 10Z" fill="#fafafa" class="fill-000000"></path><path d="M20 11h-1.08A7 7 0 0 0 13 5.08V4a1 1 0 0 0-2 0v1.08A7 7 0 0 0 5.08 11H4a1 1 0 0 0 0 2h1.08A7 7 0 0 0 11 18.92V20a1 1 0 0 0 2 0v-1.08A7 7 0 0 0 18.92 13H20a1 1 0 0 0 0-2Zm-7 5.9V16a1 1 0 0 0-2 0v.9A5 5 0 0 1 7.1 13H8a1 1 0 0 0 0-2h-.9A5 5 0 0 1 11 7.1V8a1 1 0 0 0 2 0v-.9a5 5 0 0 1 3.9 3.9H16a1 1 0 0 0 0 2h.9a5 5 0 0 1-3.9 3.9Z" fill="#fafafa" class="fill-000000"></path></svg>