<svg xmlns="http://www.w3.org/2000/svg" viewBox="0 0 130.73 24.31"><defs><style>.cls-1{fill:#9d281c;}.cls-2{fill:#fff;}</style></defs><title>Element 2</title><g id="Ebene_2" data-name="Ebene 2"><g id="Ebene_1-2" data-name="Ebene 1"><polygon class="cls-1" points="130.7 0 0 0 0 24.31 130.7 24.31 130.73 24.31 130.73 0 130.7 0"/><rect class="cls-2" x="1.29" y="1.28" width="17.42" height="21.75"/><path class="cls-2" d="M38,15.8c0,.19,0,.31,0,.35a.6.6,0,0,1-.36.07H37a.59.59,0,0,1-.36-.07.56.56,0,0,1-.07-.35V8.39A.57.57,0,0,1,36.6,8,.6.6,0,0,1,37,8h.64A.6.6,0,0,1,38,8a.58.58,0,0,1,.07.35Z"/><path class="cls-2" d="M48.61,8.81a.57.57,0,0,1-.07.35.6.6,0,0,1-.36.07H45.93V15.8a.57.57,0,0,1-.07.35.6.6,0,0,1-.36.07h-.64a.57.57,0,0,1-.35-.07.56.56,0,0,1-.07-.35V9.23H42.18a.6.6,0,0,1-.36-.07.57.57,0,0,1-.07-.35V8.39A.57.57,0,0,1,41.82,8,.6.6,0,0,1,42.18,8h6a.6.6,0,0,1,.36.07.58.58,0,0,1,.07.35Z"/><path class="cls-2" d="M58.28,8.81a.57.57,0,0,1-.07.35.59.59,0,0,1-.36.07H55.6V15.8a.56.56,0,0,1-.07.35.59.59,0,0,1-.36.07h-.64a.56.56,0,0,1-.35-.07.56.56,0,0,1-.07-.35V9.23H51.85a.59.59,0,0,1-.36-.07.57.57,0,0,1-.07-.35V8.39A.57.57,0,0,1,51.49,8,.6.6,0,0,1,51.85,8h6a.6.6,0,0,1,.36.07.57.57,0,0,1,.07.35Z"/><path class="cls-2" d="M67.91,15.8a.57.57,0,0,1-.07.35.63.63,0,0,1-.38.07H62.19a.6.6,0,0,1-.36-.07.57.57,0,0,1-.07-.35V8.39A.58.58,0,0,1,61.82,8,.6.6,0,0,1,62.19,8h5.21a.63.63,0,0,1,.38.07.57.57,0,0,1,.07.35v.42a.57.57,0,0,1-.07.35.63.63,0,0,1-.38.07H63.26v2.15h3.81a.57.57,0,0,1,.35.07.57.57,0,0,1,.07.35v.36a.56.56,0,0,1-.07.35s-.16.07-.35.07H63.26V15h4.21a.63.63,0,0,1,.38.07.57.57,0,0,1,.07.35Z"/><path class="cls-2" d="M78.65,16a.38.38,0,0,1-.13.19.79.79,0,0,1-.3,0H77.15a3.26,3.26,0,0,1-.48-.3l-3.08-2.86h-.36V15.8a.57.57,0,0,1-.07.35.6.6,0,0,1-.36.07h-.64a.6.6,0,0,1-.36-.07.56.56,0,0,1-.07-.35V8.39A.57.57,0,0,1,71.79,8,.6.6,0,0,1,72.15,8h3a4,4,0,0,1,2.13.46,2.34,2.34,0,0,1,1,2.09,2.4,2.4,0,0,1-.95,2,3.15,3.15,0,0,1-1.9.52l2.87,2.56C78.55,15.81,78.65,15.93,78.65,16Zm-1.84-5.49a1.15,1.15,0,0,0-.43-1A2.4,2.4,0,0,0,75,9.2H73.22v2.66h1.92Q76.81,11.87,76.81,10.51Z"/><path class="cls-2" d="M92.1,8.22a1.11,1.11,0,0,1,0,.23l-2,7.41a.76.76,0,0,1-.13.31.73.73,0,0,1-.34,0h-.79a.65.65,0,0,1-.33-.05.72.72,0,0,1-.14-.31L87.2,11.93c-.07-.22-.17-.63-.3-1.23l-.22-1.07q-.22,1.12-.53,2.26l-1.07,4a.75.75,0,0,1-.13.31.69.69,0,0,1-.33,0h-.83a.69.69,0,0,1-.31,0,.32.32,0,0,1-.1-.2l0,0,0-.06-2-7.41a1.32,1.32,0,0,1,0-.23q0-.25.43-.25h.65a.71.71,0,0,1,.34,0,.62.62,0,0,1,.13.31l.95,3.91q.23,1,.48,2.37c.06-.37.11-.67.16-.89q.21-1,.36-1.49l1.06-3.9A.69.69,0,0,1,86,8a.74.74,0,0,1,.33,0h.78a.74.74,0,0,1,.33,0,.69.69,0,0,1,.14.31l1.07,3.92q.2.74.5,2.36c0-.3.14-.78.26-1.43l.22-1,1-3.9A.63.63,0,0,1,90.71,8a.78.78,0,0,1,.35,0h.62C92,8,92.1,8.05,92.1,8.22Z"/><path class="cls-2" d="M101.7,15.8a.57.57,0,0,1-.07.35.63.63,0,0,1-.38.07H96a.6.6,0,0,1-.36-.07.56.56,0,0,1-.07-.35V8.39A.57.57,0,0,1,95.62,8,.6.6,0,0,1,96,8h5.21a.63.63,0,0,1,.38.07.58.58,0,0,1,.07.35v.42a.57.57,0,0,1-.07.35.63.63,0,0,1-.38.07H97.05v2.15h3.81a.57.57,0,0,1,.35.07.57.57,0,0,1,.07.35v.36a.56.56,0,0,1-.07.35.56.56,0,0,1-.35.07H97.05V15h4.21a.63.63,0,0,1,.38.07.57.57,0,0,1,.07.35Z"/><path class="cls-2" d="M112.45,16a.38.38,0,0,1-.13.19.8.8,0,0,1-.3,0h-1.07a3.2,3.2,0,0,1-.48-.3l-3.08-2.86H107V15.8a.57.57,0,0,1-.07.35.6.6,0,0,1-.36.07h-.64a.59.59,0,0,1-.36-.07.56.56,0,0,1-.07-.35V8.39a.57.57,0,0,1,.07-.35.6.6,0,0,1,.36-.07h3a4,4,0,0,1,2.13.46,2.34,2.34,0,0,1,1,2.09,2.4,2.4,0,0,1-1,2,3.15,3.15,0,0,1-1.9.52l2.87,2.56C112.34,15.81,112.45,15.93,112.45,16Zm-1.84-5.49a1.14,1.14,0,0,0-.43-1,2.39,2.39,0,0,0-1.37-.31H107v2.66h1.92Q110.61,11.87,110.61,10.51Z"/><path class="cls-2" d="M122.82,16c0,.16-.14.25-.43.25h-.88a.47.47,0,0,1-.42-.16L121,16l-2.57-3.68-1.2,1.13V15.8a.57.57,0,0,1-.07.35.6.6,0,0,1-.36.07h-.64a.6.6,0,0,1-.36-.07.57.57,0,0,1-.07-.35V8.39a.57.57,0,0,1,.07-.35A.6.6,0,0,1,116.2,8h.64a.6.6,0,0,1,.36.07.58.58,0,0,1,.07.35v3.36a7.64,7.64,0,0,1,.59-.64l2.9-2.94A1.07,1.07,0,0,1,121,8l.28,0h.8q.43,0,.43.25a.59.59,0,0,1-.18.32l-2.8,2.73,3.18,4.42A.67.67,0,0,1,122.82,16Z"/><path class="cls-2" d="M32.6,12.2a8.91,8.91,0,0,1-.12,1.21,3.58,3.58,0,0,1-.81,1.9,3.79,3.79,0,0,1-2.82,1A3.75,3.75,0,0,1,26,15.18a4.3,4.3,0,0,1-1.1-3.07A4.39,4.39,0,0,1,26,9a3.86,3.86,0,0,1,3-1.21,3.61,3.61,0,0,1,2.69,1,3.06,3.06,0,0,1,.56.78,1.75,1.75,0,0,1,.23.76c0,.11,0,.18-.09.21a.83.83,0,0,1-.35,0h-.58c-.23,0-.37-.07-.42-.2A2,2,0,0,0,28.92,9a2.3,2.3,0,0,0-1.86.83,3.38,3.38,0,0,0-.7,2.24,3.31,3.31,0,0,0,.7,2.25,2.42,2.42,0,0,0,1.93.8,2.06,2.06,0,0,0,2.26-2.23H29.44a.61.61,0,0,1-.36-.07.55.55,0,0,1-.07-.35V12.2a.56.56,0,0,1,.07-.35.61.61,0,0,1,.36-.07h2.74C32.42,11.78,32.56,11.92,32.6,12.2Z"/><path class="cls-2" d="M31.68,12.78a.41.41,0,0,0-.17.31V16a.2.2,0,0,0,.2.2h.68a.2.2,0,0,0,.2-.2V12.4c0-.11-.08-.15-.17-.09Z"/><polygon class="cls-1" points="5.08 17.68 4.11 17.68 4.11 10.83 5.08 10.02 5.08 17.68"/><polygon class="cls-1" points="6.35 17.68 5.38 17.68 5.38 9.22 6.35 8.41 6.35 17.68"/><polygon class="cls-1" points="7.63 17.68 6.66 17.68 6.66 7.6 7.63 6.79 7.63 17.68"/><polygon class="cls-1" points="8.91 17.68 7.94 17.68 7.94 10.83 8.91 10.02 8.91 17.68"/><polygon class="cls-1" points="10.19 17.68 9.21 17.68 9.21 9.22 10.19 8.41 10.19 17.68"/><polygon class="cls-1" points="11.46 17.68 10.49 17.68 10.49 7.6 11.46 6.79 11.46 17.68"/><polygon class="cls-1" points="12.74 17.68 11.77 17.68 11.77 10.83 12.74 10.02 12.74 17.68"/><polygon class="cls-1" points="14.02 17.68 13.05 17.68 13.05 9.22 14.02 8.41 14.02 17.68"/><polygon class="cls-1" points="15.29 17.68 14.32 17.68 14.32 7.6 15.29 6.79 15.29 17.68"/></g></g></svg>